<?xml version="1.0" encoding="utf-8"?>
<!-- Generator: Adobe Illustrator 16.0.0, SVG Export Plug-In . SVG Version: 6.00 Build 0)  -->
<!DOCTYPE svg PUBLIC "-//W3C//DTD SVG 1.1//EN" "http://www.w3.org/Graphics/SVG/1.1/DTD/svg11.dtd">
<svg version="1.1" id="Layer_1" xmlns="http://www.w3.org/2000/svg" xmlns:xlink="http://www.w3.org/1999/xlink" x="0px" y="0px"
	 width="1400px" height="980px" viewBox="0 0 1400 980" enable-background="new 0 0 1400 980" xml:space="preserve">
<g>
	<g>
		<path fill="#010101" d="M503.467,145.435H252.75c-3.147,0-5.696,2.662-5.696,5.945v176.813h262.112V151.38
			C509.166,148.097,506.614,145.435,503.467,145.435z M376.944,154.555c2.309,0,4.18,1.872,4.18,4.178c0,2.308-1.872,4.18-4.18,4.18
			c-2.307,0-4.178-1.872-4.178-4.18C372.766,156.426,374.638,154.555,376.944,154.555z M493.67,306.114
			c0,3.825-2.924,6.929-6.534,6.929h-220.38c-3.611,0-6.536-3.104-6.536-6.929V177.102c0-3.825,2.924-6.927,6.536-6.927h220.38
			c3.609,0,6.534,3.102,6.534,6.927V306.114z"/>
		<path fill="#010101" d="M209.797,334.068v14.637c0,8.083,6.552,14.635,14.635,14.635h307.352c8.083,0,14.635-6.552,14.635-14.635
			v-14.637H209.797z M502.796,356.023h-72.825v-9.741h72.825V356.023z"/>
	</g>
	<path fill="#010101" d="M1184.141,169.448c-1.116-0.585-142.551-8.82-142.551-8.82s-83.256,54.526-111.5,74.385
		c-5.338,3.754-8.299,8.891-8.866,15.802c-0.469,5.709,1.965,10.987,6.052,14.412c-4.591,2.714-7.853,7.525-8.321,13.234
		c-0.468,5.708,1.964,10.988,6.052,14.412c-4.592,2.712-7.854,7.525-8.32,13.232c-0.769,9.337,6.205,17.556,15.542,18.322
		l148.599,12.201c0.399,0.033,0.783-0.016,1.146-0.125c0.015-0.005,0.031-0.007,0.047-0.011c0.377-0.118,0.722-0.31,1.022-0.553
		c0.009-0.007,0.02-0.007,0.029-0.016l94.803-78.367c0.65-0.537,1.055-1.312,1.123-2.149l2.271-27.646l2.271-27.646l2.269-27.645
		C1185.909,171.219,1185.251,170.028,1184.141,169.448z M1175.155,225.937l-88.087,72.815l1.557-18.958l88.085-72.813
		L1175.155,225.937z M1090.894,252.15l88.087-72.815l-1.557,18.958l-88.085,72.813L1090.894,252.15z M927.444,251.325
		c0.485-5.907,5.686-10.319,11.593-9.835l145.489,11.946l-1.759,21.426l-145.488-11.946
		C931.373,262.431,926.959,257.232,927.444,251.325z M925.176,278.972c0.484-5.907,5.686-10.321,11.593-9.835l145.489,11.946
		l-1.761,21.424l-145.488-11.946C929.101,290.077,924.69,284.878,925.176,278.972z M922.903,306.616
		c0.486-5.907,5.688-10.319,11.595-9.833l145.488,11.946l-1.758,21.424l-145.49-11.946
		C926.832,317.721,922.42,312.523,922.903,306.616z M1172.883,253.583l-88.084,72.815l1.556-18.958l88.087-72.815L1172.883,253.583z
		"/>
	<g>
		<path fill="#010101" d="M878.266,209.222l-155.963-61.826c-1.627-0.645-4.262-0.645-5.885,0l-155.966,61.826
			c-1.625,0.644-1.625,1.691,0,2.337l62.299,24.697c-6.483,2.926-7.074,4.2-7.509,5.16c-3.186,7.007-2.829,75.711-2.723,89.413
			l5.566-0.043c-0.292-38.491,0.366-81.622,2.153-86.876c1.082-1.033,77.133-35.758,82.424-37.831l-66.904,35.334l80.66,31.973
			c1.623,0.645,4.26,0.645,5.885,0l155.963-61.826C879.893,210.913,879.893,209.867,878.266,209.222z"/>
		<path fill="#010101" d="M719.36,284.074c-1.678,0-4.204-0.208-6.708-1.205l-78.179-30.989v64.432
			c0,10.504,38.005,19.018,84.887,19.018c46.88,0,84.885-8.514,84.885-19.018V251.88l-78.183,30.993
			C723.563,283.866,721.038,284.074,719.36,284.074z"/>
		<path fill="#010101" d="M621.95,350.064c0-2.783,0-9.277,0-12.292s-6.262-3.169-6.262-3.169s-6.262,0.154-6.262,3.169
			s0,9.509,0,12.292s6.262,2.783,6.262,2.783S621.95,352.847,621.95,350.064z"/>
		<path fill="#010101" d="M621.95,354.201c-5.876,3.403-11.75,0-11.75,0c-6.184,2.937-6.648,13.916-6.648,19.567
			s-2.939,11.821-2.939,11.821l4.639,5.874c0,0,3.749-6.746,2.578-12.678s0.668-9.741,0.668-9.741s0,2.319,0.928,7.268
			c0.928,4.948-2.009,14.997-1.545,15.736s7.112,2.972,8.813-1.049c1.7-4.021,1.238-20.1,1.238-20.1s0,0,1.392,5.256
			c1.392,5.257-0.734,15.617-0.734,15.617s3.207,0.618,5.216,0c2.011-0.618,2.939-1.702,1.702-4.175
			c-1.238-2.473,0.842-11.591,1.392-18.708C627.672,358.839,621.95,354.201,621.95,354.201z"/>
	</g>
	<g>
		<polygon fill="#010101" points="599.803,549.941 584.088,521.694 536.596,474.204 516.708,494.092 564.201,541.585 
			592.448,557.295 		"/>
		<path fill="#010101" d="M429.407,386.924c-2.747,2.749-2.749,7.204,0.001,9.955l10.397,10.398l9.957-9.955l-10.398-10.398
			C436.613,384.173,432.157,384.175,429.407,386.924z"/>
		<g>
			
				<rect x="473.089" y="405.616" transform="matrix(-0.7071 0.7071 -0.7071 -0.7071 1146.0862 414.6142)" fill="#010101" width="28.157" height="78.139"/>
			<path fill="#010101" d="M461.824,399.874c-2.323-1.507-4.988-2.272-7.661-2.274l-14.077,14.08c0,2.671,0.763,5.338,2.274,7.657
				L461.824,399.874z"/>
		</g>
		
			<rect x="432.078" y="414.228" transform="matrix(-0.7071 0.7071 -0.7071 -0.7071 1066.4905 393.0275)" fill="#010101" width="39.53" height="6.347"/>
		
			<rect x="462.77" y="417.759" transform="matrix(-0.7069 0.7073 -0.7073 -0.7069 1114.1217 441.7469)" fill="#010101" width="5.539" height="67.877"/>
		
			<rect x="506.616" y="475.675" transform="matrix(-0.7071 0.7071 -0.7071 -0.7071 1226.9735 448.1269)" fill="#010101" width="28.125" height="4.997"/>
		<path fill="#010101" d="M605.646,566.753c2.545,2.334,6.577,2.968,6.577,2.968s-0.631-4.033-2.964-6.581
			c-2.329-2.54-9.078-9.077-9.078-9.077l-3.613,3.612C596.568,557.675,603.106,564.426,605.646,566.753z"/>
	</g>
	<g>
		<g>
			<path fill="#010101" d="M712.446,447.993l112.005,112.001l0.109-0.108c-2.468-2.979-3.722-6.606-3.762-10.245
				c-0.036-3.635,5.961-5.203,9.625-4.192L720.86,435.885C717.325,439.754,714.508,444.189,712.446,447.993z"/>
			<path fill="#010101" d="M723.531,433.216l109.563,109.561c-0.995-4.015,0.217-9.549,3.685-9.621
				c3.802-0.08,7.634,1.174,10.752,3.758l0.109-0.112l-112.002-112C731.834,426.864,727.401,429.68,723.531,433.216z"/>
			<path fill="#010101" d="M719.491,431.845c4.158-4.158,9.077-7.44,13.35-9.839l-10.337-10.339
				c-6.405-6.405-16.787-6.403-23.19,0.002c-6.403,6.403-6.407,16.784,0,23.189l10.339,10.339
				C712.051,440.922,715.331,436.003,719.491,431.845z"/>
		</g>
		<path fill="#010101" d="M879.874,592.229l-18.032-29.364c-3.837,0.167-6.62,1.612-8.168,3.164
			c-1.549,1.547-2.997,4.33-3.163,8.168L879.874,592.229z"/>
	</g>
	<g>
		<g>
			<path fill="#010101" d="M251.842,693.148h65.117l0,0h65.117c4.452,0,8.058,3.609,8.058,8.06s-3.605,8.056-8.058,8.056h-65.117
				l0,0h-65.117c-4.452,0-8.058-3.609-8.058-8.06S247.391,693.148,251.842,693.148z"/>
			<polygon fill="#010101" points="381.668,715.819 368.68,834.564 316.959,834.564 265.238,834.564 252.25,715.819 
				316.959,715.819 			"/>
		</g>
		<g>
			<path fill="#010101" d="M349.293,612.293l-14.282,74.808h-9.167l14.298-74.905C342.815,611.931,346.073,611.83,349.293,612.293z"
				/>
			<path fill="#010101" d="M351.592,612.732c3.165,0.753,6.159,2.047,8.541,3.279l-13.571,71.089h-9.165L351.592,612.732z"/>
			<path fill="#010101" d="M360.594,613.602c-2.722-1.355-6.121-2.736-9.707-3.421c-3.584-0.685-7.253-0.652-10.283-0.395l1.7-8.911
				c1.055-5.52,6.383-9.14,11.904-8.089c5.519,1.055,9.141,6.382,8.086,11.904L360.594,613.602z"/>
		</g>
		<g>
			
				<rect x="363.035" y="674.115" transform="matrix(0.9033 0.429 -0.429 0.9033 325.7745 -94.1501)" fill="#010101" width="17.455" height="3.1"/>
			<polygon fill="#010101" points="375.991,687.101 356.673,687.101 361.632,676.656 377.397,684.144 			"/>
			<polygon fill="#010101" points="381.873,674.761 366.089,667.264 386.886,623.466 402.67,630.956 			"/>
			<polygon fill="#010101" points="405.118,630.725 387.426,622.328 389.115,618.77 411.275,629.289 409.586,632.844 
				408.224,632.199 391.001,668.47 387.897,666.995 			"/>
			<path fill="#010101" d="M405.297,624.966l-15.43-7.327c1.043-1.362,2.442-2.366,4.004-2.925l11.162,5.302
				C405.587,621.578,405.698,623.295,405.297,624.966z"/>
			<path fill="#010101" d="M404.279,617.385l-7.893-3.75l3.914-8.241c1.037-2.182,3.64-3.105,5.82-2.072
				c2.178,1.032,3.107,3.638,2.073,5.819L404.279,617.385z"/>
		</g>
		<path fill="#010101" d="M211.585,563.919l47.86,123.182h56.307l-55.244-142.192c-5.249-13.51-20.457-20.203-33.964-14.955
			C213.033,535.2,206.336,550.405,211.585,563.919z M237.753,558.806c2.544-0.985,5.409,0.271,6.396,2.815l9.745,25.088
			c0.989,2.544-0.27,5.407-2.814,6.393c-2.544,0.989-5.407-0.268-6.396-2.813l-9.746-25.087
			C233.95,562.658,235.209,559.795,237.753,558.806z"/>
	</g>
	<path fill="#010101" d="M1152.654,582.85l-2.142-2.138l20.188-20.188l-7.849-7.846l-11.98,11.984l-2.142-2.142l11.983-11.98
		l-7.849-7.85l-20.186,20.185l-2.14-2.138l20.187-20.185l-7.848-7.85l-11.981,11.984l-2.14-2.142l11.981-11.98l-7.847-7.85
		L1120.91,534.7l-2.141-2.142l11.982-11.98l-7.846-7.846l-11.983,11.98l-2.139-2.142l11.98-11.98l-7.846-7.846l-20.185,20.185
		l-2.142-2.138l20.185-20.188l-7.846-7.846l-11.98,11.98l-2.141-2.139l11.983-11.982l-7.849-7.847l-20.186,20.185l-2.142-2.138
		l20.188-20.187l-7.85-7.847l-11.979,11.982l-2.142-2.14l11.983-11.982l-7.849-7.846l-20.186,20.187l-2.14-2.142l20.187-20.185
		l-7.848-7.847l-11.981,11.982l-2.142-2.14l11.983-11.982l-7.846-7.845l-11.983,11.982l-2.139-2.14l11.98-11.982l-7.846-7.847
		l-20.185,20.185l-2.142-2.14l20.185-20.185l-7.846-7.847l-11.983,11.982l-2.139-2.14l11.98-11.982l-7.846-7.847l-20.185,20.187
		l-2.142-2.142l20.185-20.185l-7.846-7.846l-11.98,11.982l-2.142-2.142l11.982-11.982l-7.848-7.846l-20.185,20.185l-2.142-2.14
		l20.188-20.185l-7.848-7.847l-11.981,11.982l-2.143-2.14l11.984-11.982l-26.592-26.59c-11.146-11.149-29.223-11.147-40.369,0
		c-11.147,11.149-11.148,29.223,0,40.371l215.987,215.988l40.373-40.373l-7.497-7.494L1152.654,582.85z M952.907,390.705
		l-10.352-10.352c-2.098-2.098-2.098-5.501,0-7.601c2.099-2.1,5.501-2.1,7.603,0l10.35,10.351c2.099,2.1,2.099,5.501,0,7.601
		C958.41,392.805,955.007,392.805,952.907,390.705z"/>
	<path fill="#010101" d="M749.665,599.356c-26.996,0-50.45,5.414-62.365,12.644c13.134-4.791,32.056-9.386,52.368-9.386
		c39.051,0,69.748,12.415,69.748,23.747v190.353h-0.114c-2.038-10.803-32.858-19.38-70.592-19.38
		c-23.122,0-43.595,3.235-56.49,8.211v-19.812c0.339,0.385,0.824,0.602,1.328,0.602c0.261,0,0.527-0.058,0.777-0.181
		c54.535-26.588,112.505-0.258,113.083,0.015c0.894,0.405,1.948,0.025,2.361-0.863c0.413-0.891,0.027-1.945-0.862-2.358
		c-0.595-0.275-60.055-27.331-116.141,0.015c-0.215,0.104-0.398,0.25-0.547,0.416v-18.873c0.339,0.385,0.824,0.602,1.328,0.602
		c0.261,0,0.527-0.058,0.777-0.181c54.535-26.585,112.505-0.258,113.083,0.015c0.894,0.405,1.948,0.028,2.361-0.862
		c0.413-0.889,0.027-1.946-0.862-2.359c-0.595-0.275-60.055-27.335-116.141,0.015c-0.215,0.104-0.398,0.25-0.547,0.416v-18.872
		c0.339,0.384,0.824,0.602,1.328,0.602c0.261,0,0.527-0.059,0.777-0.182c54.535-26.584,112.505-0.258,113.083,0.019
		c0.894,0.405,1.948,0.024,2.361-0.863c0.413-0.892,0.027-1.949-0.862-2.362c-0.595-0.275-60.055-27.331-116.141,0.015
		c-0.215,0.104-0.398,0.25-0.547,0.42v-18.873c0.339,0.381,0.824,0.599,1.328,0.599c0.261,0,0.527-0.055,0.777-0.178
		c54.535-26.588,112.505-0.258,113.083,0.015c0.894,0.405,1.948,0.025,2.361-0.862c0.413-0.892,0.027-1.946-0.862-2.359
		c-0.595-0.275-60.055-27.335-116.141,0.015c-0.215,0.104-0.398,0.25-0.547,0.416v-18.873c0.339,0.385,0.824,0.602,1.328,0.602
		c0.261,0,0.527-0.058,0.777-0.181c54.535-26.588,112.505-0.258,113.083,0.015c0.894,0.409,1.948,0.025,2.361-0.862
		c0.413-0.889,0.027-1.946-0.862-2.359c-0.595-0.279-60.055-27.335-116.141,0.015c-0.215,0.104-0.398,0.25-0.547,0.416v-18.872
		c0.339,0.384,0.824,0.602,1.328,0.602c0.261,0,0.527-0.059,0.777-0.182c54.535-26.588,112.505-0.257,113.083,0.015
		c0.894,0.409,1.948,0.029,2.361-0.862c0.413-0.888,0.027-1.946-0.862-2.359c-0.595-0.275-60.055-27.335-116.141,0.015
		c-0.215,0.104-0.398,0.25-0.547,0.42v-18.876c0.339,0.384,0.824,0.602,1.328,0.602c0.261,0,0.527-0.059,0.777-0.182
		c54.535-26.588,112.505-0.257,113.083,0.019c0.894,0.402,1.948,0.025,2.361-0.862c0.413-0.892,0.027-1.95-0.862-2.363
		c-0.595-0.275-60.055-27.331-116.141,0.015c-0.215,0.104-0.398,0.25-0.547,0.42v-18.872c0.339,0.38,0.824,0.598,1.328,0.598
		c0.261,0,0.527-0.055,0.777-0.178c54.535-26.588,112.505-0.258,113.083,0.015c0.894,0.405,1.948,0.025,2.361-0.862
		c0.413-0.892,0.027-1.946-0.862-2.359c-0.595-0.275-60.055-27.335-116.141,0.015c-0.215,0.104-0.398,0.25-0.547,0.417v-22.813
		c0-1.025-0.832-1.855-1.855-1.855c-1.025,0-1.855,0.83-1.855,1.855v22.813c-0.15-0.167-0.333-0.313-0.549-0.417
		c-56.086-27.35-115.544-0.29-116.14-0.015c-0.888,0.413-1.274,1.468-0.861,2.359c0.413,0.888,1.466,1.268,2.361,0.862
		c0.578-0.272,58.55-26.603,113.082-0.015c0.25,0.123,0.517,0.178,0.777,0.178c0.504,0,0.989-0.218,1.33-0.598v18.872
		c-0.15-0.17-0.333-0.315-0.549-0.42c-56.086-27.346-115.544-0.29-116.14-0.015c-0.888,0.413-1.274,1.472-0.861,2.363
		c0.413,0.888,1.466,1.265,2.361,0.862c0.578-0.275,58.55-26.606,113.082-0.019c0.25,0.123,0.517,0.182,0.777,0.182
		c0.504,0,0.989-0.218,1.33-0.602v18.876c-0.15-0.17-0.333-0.315-0.549-0.42c-56.086-27.35-115.544-0.29-116.14-0.015
		c-0.888,0.413-1.274,1.472-0.861,2.359c0.413,0.892,1.466,1.271,2.361,0.862c0.578-0.271,58.55-26.603,113.082-0.015
		c0.25,0.123,0.517,0.182,0.777,0.182c0.504,0,0.989-0.218,1.33-0.602v18.872c-0.15-0.166-0.333-0.312-0.549-0.416
		c-56.086-27.35-115.544-0.294-116.14-0.015c-0.888,0.413-1.274,1.471-0.861,2.359c0.413,0.888,1.466,1.271,2.361,0.862
		c0.578-0.272,58.55-26.603,113.082-0.015c0.25,0.123,0.517,0.181,0.777,0.181c0.504,0,0.989-0.217,1.33-0.602v18.873
		c-0.15-0.166-0.333-0.312-0.549-0.416c-56.086-27.35-115.544-0.29-116.14-0.015c-0.888,0.413-1.274,1.468-0.861,2.359
		c0.413,0.888,1.466,1.268,2.361,0.862c0.578-0.272,58.55-26.603,113.082-0.015c0.25,0.123,0.517,0.178,0.777,0.178
		c0.504,0,0.989-0.218,1.33-0.599v18.873c-0.15-0.17-0.333-0.315-0.549-0.42c-56.086-27.346-115.544-0.29-116.14-0.015
		c-0.888,0.413-1.274,1.471-0.861,2.362c0.413,0.888,1.466,1.269,2.361,0.863c0.578-0.276,58.55-26.603,113.082-0.019
		c0.25,0.123,0.517,0.182,0.777,0.182c0.504,0,0.989-0.218,1.33-0.602v18.872c-0.15-0.166-0.333-0.312-0.549-0.416
		c-56.086-27.35-115.544-0.29-116.14-0.015c-0.888,0.413-1.274,1.471-0.861,2.359c0.413,0.891,1.466,1.268,2.361,0.862
		c0.578-0.272,58.55-26.6,113.082-0.015c0.25,0.123,0.517,0.181,0.777,0.181c0.504,0,0.989-0.217,1.33-0.602v18.873
		c-0.15-0.166-0.333-0.312-0.549-0.416c-56.086-27.346-115.544-0.29-116.14-0.015c-0.888,0.413-1.274,1.468-0.861,2.358
		c0.413,0.889,1.466,1.269,2.361,0.863c0.578-0.272,58.55-26.603,113.082-0.015c0.25,0.123,0.517,0.181,0.777,0.181
		c0.504,0,0.989-0.217,1.33-0.602v19.815c-12.894-4.979-33.368-8.215-56.49-8.215c-37.733,0-68.556,8.577-70.592,19.38h-0.114
		V626.361c0-11.332,30.697-23.747,69.748-23.747c20.313,0,39.233,4.595,52.366,9.386c-11.912-7.229-35.367-12.644-62.362-12.644
		c-47.161,0-70.707,19.318-70.707,31.093v189.838h138.601h2.811h138.603V630.449C820.371,618.675,796.825,599.356,749.665,599.356z"
		/>
	<g>
		<path fill="#010101" d="M1043.481,706.343c0,0-5.611-5.643-15.356-12.825c-9.744-7.182-96.046-53.947-98.978-49.149
			s78.072,60.239,88.911,65.631c10.839,5.393,18.42,7.81,18.42,7.81l3.502-5.732L1043.481,706.343z M1096.282,727.281
			c-16.762-11.712-24.512-10.299-30.864-7.907l-7.222,11.821c0,0,6.446,16.73,24.243,18.746c17.793,2.019,39.329,9.763,39.329,9.763
			S1113.039,738.997,1096.282,727.281z M1049.023,709.728l-7.004,11.466l11.35,6.933l7.003-11.463L1049.023,709.728z"/>
		<path fill="#010101" d="M1070.203,607.097c-30.764-2.985-65.688,33.988-46.774,54.191c11.299,12.07,13.517,22.098,11.785,29.447
			c6.512,5.019,10.784,9.005,12.282,10.451l18.335,11.204c8.777-2.565,18.405-1.449,34.169,9.571
			c18.089,12.64,27.367,34.303,27.752,35.22l5.751,13.637l-13.931-5.001c-0.208-0.076-21.058-7.52-37.865-9.422
			c-17.668-2.001-26.069-15.638-28.666-20.859l-19.316-11.803c-2.276-0.775-9.273-3.301-18.559-7.922
			c-1.094-0.547-2.788-1.519-4.946-2.837c-14.133,16.383-7.321,46.936,28.568,73.792c47.17,35.304,123.809,40.392,147.219-21.595
			C1207.38,708.579,1143.809,614.247,1070.203,607.097z M1077.968,644.948c-2.501-4.081-1.216-9.408,2.86-11.904
			c4.079-2.497,9.41-1.215,11.906,2.862c2.497,4.08,1.214,9.407-2.864,11.908C1085.791,650.308,1080.463,649.024,1077.968,644.948z
			 M1103.356,664.212c-2.497-4.08-1.214-9.407,2.862-11.904c4.077-2.497,9.407-1.214,11.904,2.863
			c2.497,4.076,1.214,9.411-2.862,11.907C1111.18,669.572,1105.853,668.289,1103.356,664.212z M1154.706,720.556
			c-4.079,2.497-9.411,1.218-11.906-2.863c-2.497-4.076-1.212-9.407,2.864-11.907c4.079-2.494,9.408-1.211,11.908,2.869
			C1160.067,712.731,1158.782,718.059,1154.706,720.556z M1139.116,689.463c-4.077,2.493-9.407,1.214-11.904-2.862
			c-2.501-4.081-1.218-9.411,2.862-11.904c4.077-2.501,9.408-1.218,11.904,2.862
			C1144.476,681.636,1143.193,686.966,1139.116,689.463z"/>
	</g>
	<g>
		<path fill="#010101" d="M312.467,391.702c-1.576-1.971-4.454-2.289-6.419-0.71l-17.17,13.758l-0.366,0.292l-17.172,13.756
			c-1.964,1.58-2.285,4.454-0.707,6.422l60.638,98.323c1.576,1.968,4.452,2.283,6.419,0.707l17.322-13.88l3.562-2.855l7.334-5.878
			l0.366-0.293l7.333-5.874l3.564-2.855l17.324-13.88c1.966-1.574,2.285-4.45,0.708-6.417L312.467,391.702z"/>
		<path fill="#010101" d="M340.815,527.996c0,0,18.659,5.762,32.511,20.416l18.492-14.813l18.493-14.818
			c-11.287-16.717-12.837-36.18-12.837-36.18l-28.33,22.7L340.815,527.996z"/>
		<polygon fill="#010101" points="395.025,558.418 421.679,550.051 406.087,530.591 385.772,546.869 		"/>
	</g>
</g>
</svg>
